:SAMPLES-PER-SECOND 30
:FULLY-SPECIFIED
:DEGREES
250
root  -26.986 41.1431 2.4631 -165.579 -83.1555 162.684
RightUpLeg  -3.10056 -10.4768 -9.03001
RightLeg  7.30464 -6.01687 2.72478
RightFoot  0.198161 -0.123346 1.23351
RightToes  0.000482159 0.542163 -0.142577
Spine  5.41639 -0.644369 2.05004
Spine1  23.2901 -0.0658152 -1.34815
HEad  51.1427 -5.57886 -5.15269
LeftShoulder1  7.76909 -12.8674 -41.1383
LeftArm  0.339209 -3.00883 -32.3356
LeftForeArm  36.9288 -16.6353 -5.06721
LeftHand  -0.25398 0.0180481 5.50724
RightShoulder  5.85705 10.3557 36.2716
RightArm  8.79697 12.4998 42.2341
RightForeArm  9.4194 19.9519 5.0031
RightHand  -0.776946 1.88638 -12.5724
LeftUpLeg  -0.487235 5.28574 2.37585
LeftLeg  1.48361 14.2681 -4.67563
LeftFoot  1.76929 -0.058061 0.412098
LeftToes  1.06244e-005 4.65856e-005 -8.18505e-006
251
root  -26.9711 41.1344 2.61432 -165.726 -82.9946 162.649
RightUpLeg  -3.08648 -10.5655 -9.24766
RightLeg  7.47148 -5.72046 2.55165
RightFoot  0.253967 -0.153217 1.52531
RightToes  0.000482159 0.542163 -0.142577
Spine  5.07612 -0.41665 2.24939
Spine1  23.544 0.361584 -1.77185
HEad  50.9233 -4.79179 -5.18061
LeftShoulder1  7.75702 -12.7874 -41.2873
LeftArm  -0.491215 -2.328 -31.9495
LeftForeArm  37.3661 -16.0079 -5.25115
LeftHand  -0.25398 0.0180481 5.50724
RightShoulder  5.85184 10.3174 36.3489
RightArm  9.54222 12.5628 42.636
RightForeArm  8.83089 20.5579 4.86051
RightHand  -0.802891 2.00878 -12.7818
LeftUpLeg  -0.358582 5.17693 2.09379
LeftLeg  1.5496 14.5604 -4.65598
LeftFoot  1.64867 -0.0762329 0.582028
LeftToes  1.06244e-005 4.65856e-005 -8.18505e-006
252
root  -26.9488 41.1246 2.76196 -165.955 -82.8645 162.669
RightUpLeg  -3.01612 -10.6707 -9.46883
RightLeg  7.5668 -5.44512 2.43209
RightFoot  0.367158 -0.173338 1.71425
RightToes  0.000482159 0.542163 -0.142577
Spine  4.83391 -0.22365 2.47269
Spine1  23.7848 0.762059 -2.22032
HEad  50.7725 -3.96159 -5.16731
LeftShoulder1  7.75007 -12.7157 -41.4441
LeftArm  -0.827831 -1.52944 -31.628
LeftForeArm  37.1075 -15.9169 -5.25759
LeftHand  -0.25398 0.0180481 5.50724
RightShoulder  5.84962 10.3166 36.3358
RightArm  10.0006 12.759 42.9121
RightForeArm  9.10603 20.5585 4.85624
RightHand  -0.7846 1.94367 -12.5967
LeftUpLeg  -0.213253 5.0751 1.83176
LeftLeg  1.60561 14.8374 -4.63013
LeftFoot  1.55981 -0.0934646 0.743301
LeftToes  1.06244e-005 4.65856e-005 -8.18505e-006
253
root  -26.9192 41.1137 2.90179 -165.907 -82.9586 162.456
RightUpLeg  -2.88594 -10.7842 -9.69936
RightLeg  7.54717 -5.37333 2.39195
RightFoot  0.490419 -0.188817 1.85365
RightToes  0.000482159 0.542163 -0.142577
Spine  4.59478 -0.145032 2.68021
Spine1  24.0194 1.02216 -2.63323
HEad  50.6786 -3.05485 -5.11656
LeftShoulder1  7.74647 -12.6675 -41.5563
LeftArm  -0.893134 -0.623731 -31.4054
LeftForeArm  36.4186 -16.2313 -5.12472
LeftHand  -0.25398 0.0180481 5.50724
RightShoulder  5.83409 10.3205 36.2144
RightArm  10.1233 13.0218 43.1502
RightForeArm  10.2871 20.0812 4.9484
RightHand  -0.706906 1.58023 -11.9333
LeftUpLeg  -0.185994 5.00268 1.61611
LeftLeg  1.74174 14.8713 -4.61111
LeftFoot  1.48609 -0.113193 0.927126
LeftToes  1.06244e-005 4.65856e-005 -8.18505e-006
254
root  -26.8763 41.1005 3.03001 -165.492 -83.2007 161.905
RightUpLeg  -2.78678 -10.9319 -9.93146
RightLeg  7.56888 -5.40291 2.36216
RightFoot  0.585243 -0.208876 2.03692
RightToes  0.000482159 0.542163 -0.142577
Spine  4.41523 -0.130061 2.81999
Spine1  24.1971 1.18504 -2.9813
HEad  50.5934 -2.14044 -5.00228
LeftShoulder1  7.73655 -12.622 -41.6249
LeftArm  -0.896713 0.277566 -31.2856
LeftForeArm  35.7556 -16.7594 -4.90555
LeftHand  -0.25398 0.0180481 5.50724
RightShoulder  5.79139 10.2849 36.0187
RightArm  9.81202 13.2478 43.3651
RightForeArm  11.6519 19.2283 5.1836
RightHand  -0.657501 1.35662 -11.463
LeftUpLeg  -0.257022 4.95661 1.4289
LeftLeg  1.9483 14.7275 -4.60868
LeftFoot  1.41547 -0.133322 1.11618
LeftToes  1.06244e-005 4.65856e-005 -8.18505e-006
255
root  -26.8175 41.0836 3.14765 -164.844 -83.4049 161.109
RightUpLeg  -2.78897 -11.134 -10.1579
RightLeg  7.74932 -5.34668 2.2841
RightFoot  0.647934 -0.23238 2.25402
RightToes  0.000482159 0.542163 -0.142577
Spine  4.36509 -0.0999984 2.90701
Spine1  24.2912 1.36749 -3.33539
HEad  50.4674 -1.2918 -4.75039
LeftShoulder1  7.70199 -12.5503 -41.6239
LeftArm  -0.926121 1.05131 -31.268
LeftForeArm  35.2987 -17.3298 -4.66713
LeftHand  -0.25398 0.0180481 5.50724
RightShoulder  5.74985 10.2195 35.9186
RightArm  9.06221 13.3894 43.3779
RightForeArm  12.953 18.1642 5.53796
RightHand  -0.663309 1.44765 -11.416
LeftUpLeg  -0.344355 4.90644 1.22755
LeftLeg  2.17129 14.6219 -4.60702
LeftFoot  1.35389 -0.150669 1.28092
LeftToes  1.06244e-005 4.65856e-005 -8.18505e-006
256
root  -26.7498 41.0638 3.25566 -164.047 -83.5566 160.159
RightUpLeg  -2.85357 -11.3541 -10.3662
RightLeg  8.01109 -5.22835 2.1628
RightFoot  0.661203 -0.249641 2.41645
RightToes  0.000482159 0.542163 -0.142577
Spine  4.37761 -0.0542237 2.99149
Spine1  24.3522 1.59463 -3.75322
HEad  50.2622 -0.5247 -4.33415
LeftShoulder1  7.65193 -12.4737 -41.5457
LeftArm  -0.985484 1.65254 -31.3089
LeftForeArm  34.9166 -17.8293 -4.46515
LeftHand  -0.25398 0.0180481 5.50724
RightShoulder  5.74944 10.1781 36.0395
RightArm  8.01498 13.3924 43.033
RightForeArm  14.4215 17.1465 5.87483
RightHand  -0.672719 1.56802 -11.3875
LeftUpLeg  -0.435118 4.83987 1.00876
LeftLeg  2.3925 14.5676 -4.59521
LeftFoot  1.30314 -0.168473 1.44958
LeftToes  1.06244e-005 4.65856e-005 -8.18505e-006
257
root  -26.6806 41.042 3.35425 -163.051 -83.7374 159.014
RightUpLeg  -2.89263 -11.5709 -10.5656
RightLeg  8.25118 -5.12164 2.03293
RightFoot  0.582227 -0.260769 2.53384
RightToes  0.000482159 0.542163 -0.142577
Spine  4.3945 -0.0272094 3.05667
Spine1  24.4203 1.78883 -4.14275
HEad  49.9871 0.196264 -3.91783
LeftShoulder1  7.6325 -12.4424 -41.5198
LeftArm  -1.08639 2.10894 -31.298
LeftForeArm  34.5245 -18.2209 -4.31389
LeftHand  -0.25398 0.0180481 5.50724
RightShoulder  5.77439 10.1823 36.2049
RightArm  6.82446 13.1869 42.5112
RightForeArm  15.6206 16.2601 6.15295
RightHand  -0.67884 1.5958 -11.4462
LeftUpLeg  -0.526371 4.78426 0.803692
LeftLeg  2.61324 14.4449 -4.59939
LeftFoot  1.22329 -0.18845 1.64485
LeftToes  1.06244e-005 4.65856e-005 -8.18505e-006
258
root  -26.6068 41.0165 3.44726 -161.799 -83.9134 157.595
RightUpLeg  -2.92562 -11.8508 -10.7932
RightLeg  8.53269 -4.91983 1.9036
RightFoot  0.392812 -0.280507 2.75471
RightToes  0.000482159 0.542163 -0.142577
Spine  4.48124 -0.0174318 3.0477
Spine1  24.4486 1.90428 -4.39464
HEad  49.7147 0.91608 -3.74057
LeftShoulder1  7.65863 -12.4512 -41.648
LeftArm  -1.26917 2.43611 -31.2002
LeftForeArm  34.2841 -18.4794 -4.20953
LeftHand  -0.25398 0.0180481 5.50724
RightShoulder  5.77187 10.1928 36.1555
RightArm  5.5163 12.8001 42.1277
RightForeArm  15.9588 15.3398 6.46859
RightHand  -0.725261 1.72058 -12.0069
LeftUpLeg  -0.611233 4.75889 0.610069
LeftLeg  2.87135 14.2944 -4.63321
LeftFoot  1.03255 -0.199176 1.77987
LeftToes  1.06244e-005 4.65856e-005 -8.18505e-006
259
root  -26.5205 40.9831 3.5375 -160.277 -84.014 155.927
RightUpLeg  -3.11108 -12.2372 -11.0383
RightLeg  9.00391 -4.5638 1.73196
RightFoot  0.103943 -0.318119 3.18041
RightToes  0.000482159 0.542163 -0.142577
Spine  4.66046 -0.0112864 2.97687
Spine1  24.3825 1.97634 -4.55744
HEad  49.4905 1.62205 -3.82784
LeftShoulder1  7.67948 -12.4441 -41.7902
LeftArm  -1.53103 2.58435 -31.1343
LeftForeArm  34.3663 -18.5188 -4.17293
LeftHand  -0.25398 0.0180481 5.50724
RightShoulder  5.73598 10.1682 35.9731
RightArm  4.16776 12.3366 41.8654
RightForeArm  15.9121 14.3661 6.80242
RightHand  -0.794969 1.95801 -12.7415
LeftUpLeg  -0.810614 4.73273 0.391864
LeftLeg  3.311 14.2536 -4.63535
LeftFoot  0.673265 -0.187981 1.74728
LeftToes  1.06244e-005 4.65856e-005 -8.18505e-006
260
root  -26.4222 40.9394 3.62038 -158.467 -84.1294 154.079
RightUpLeg  -3.54981 -12.6605 -11.2137
RightLeg  9.70478 -4.2583 1.46922
RightFoot  -0.277408 -0.3618 3.71421
RightToes  0.000482159 0.542163 -0.142577
Spine  4.81714 -0.0292985 2.90085
Spine1  24.2647 2.01433 -4.70169
HEad  49.2547 2.22411 -3.99507
LeftShoulder1  7.66064 -12.4074 -41.7832
LeftArm  -1.78737 2.49408 -31.1792
LeftForeArm  34.6587 -18.2917 -4.22763
LeftHand  -0.25398 0.0180481 5.50724
RightShoulder  5.71041 10.1248 35.92
RightArm  2.98936 11.8007 41.4674
RightForeArm  16.2427 13.652 6.98248
RightHand  -0.817239 2.0306 -12.9679
LeftUpLeg  -1.32204 4.66191 0.14893
LeftLeg  4.11434 14.2735 -4.50379
LeftFoot  0.17514 -0.161716 1.59309
LeftToes  1.06244e-005 4.65856e-005 -8.18505e-006
261
root  -26.3214 40.8862 3.69313 -156.373 -84.4074 152.028
RightUpLeg  -4.11149 -13.0854 -11.2815
RightLeg  10.5415 -4.14344 1.14498
RightFoot  -0.718597 -0.392381 4.16477
RightToes  0.000482159 0.542163 -0.142577
Spine  4.90007 -0.102581 2.84098
Spine1  24.1853 1.95971 -4.76429
HEad  48.9452 2.64704 -4.13265
LeftShoulder1  7.64409 -12.3888 -41.7385
LeftArm  -1.93814 2.19747 -31.2354
LeftForeArm  34.8666 -17.9403 -4.34055
LeftHand  -0.25398 0.0180481 5.50724
RightShoulder  5.70983 10.1112 35.9632
RightArm  2.05205 11.1018 40.9176
RightForeArm  16.6765 13.3937 6.95841
RightHand  -0.791764 1.88597 -12.8077
LeftUpLeg  -2.12589 4.65939 -0.0954171
LeftLeg  5.2892 14.0586 -4.17647
LeftFoot  -0.365914 -0.139326 1.47375
LeftToes  1.06244e-005 4.65856e-005 -8.18505e-006
262
root  -26.2269 40.8286 3.76395 -154.178 -84.7884 149.798
RightUpLeg  -4.5522 -13.6009 -11.3365
RightLeg  11.387 -4.0047 0.859669
RightFoot  -1.1239 -0.405801 4.44959
RightToes  0.000482159 0.542163 -0.142577
Spine  5.03252 -0.220136 2.80441
Spine1  24.1697 1.81634 -4.72425
HEad  48.6427 2.91784 -4.27463
LeftShoulder1  7.66796 -12.4089 -41.8218
LeftArm  -1.95187 1.82521 -31.2242
LeftForeArm  34.879 -17.7088 -4.42808
LeftHand  -0.25398 0.0180481 5.50724
RightShoulder  5.70936 10.1359 35.9053
RightArm  1.21374 10.2932 40.4111
RightForeArm  16.662 13.3127 6.8875
RightHand  -0.785434 1.81788 -12.8198
LeftUpLeg  -2.90396 5.00351 -0.369295
LeftLeg  6.58116 13.3621 -3.68471
LeftFoot  -0.857158 -0.129562 1.46933
LeftToes  1.06244e-005 4.65856e-005 -8.18505e-006
